<?xml version="1.0" encoding="utf-8"?>
<!-- Generator: Adobe Illustrator 27.5.0, SVG Export Plug-In . SVG Version: 6.00 Build 0)  -->
<svg version="1.1" xmlns="http://www.w3.org/2000/svg" xmlns:xlink="http://www.w3.org/1999/xlink" x="0px" y="0px"
	 viewBox="0 0 650 500" style="enable-background:new 0 0 650 500;" xml:space="preserve">
<g id="BACKGROUND">
	<rect style="fill:#84D1FA;" width="650" height="500"/>
	<path style="fill:#B3E4FF;" d="M597.118,224.747c-19.038,55.705-46.505,107.467-93.048,144.593
		c-44.542,35.529-98.389,58.354-153.966,69.842c-79.16,16.362-199.475,17.951-265.416-38.404
		C10.543,337.414,59.96,215.184,112.851,154.68C184.54,72.674,295.288,37.974,400.851,28.911
		c51.241-4.399,107.893-1.537,151.18,29.41C607.885,98.252,608.495,163.088,597.118,224.747z"/>
</g>
<g id="OBJECTS">
	<g>
		<g>
			<g>
				<path style="fill:#FDCC59;" d="M492.393,466.719H391.138c-1.626,0-2.943-1.318-2.943-2.944v-8.236
					c0-1.626,1.318-2.943,2.943-2.943h101.255c1.626,0,2.943,1.318,2.943,2.943v8.236
					C495.337,465.401,494.019,466.719,492.393,466.719z"/>
				<g>
					
						<line style="fill:none;stroke:#FD8E26;stroke-width:1.6134;stroke-miterlimit:10;" x1="441.766" y1="466.719" x2="441.766" y2="452.596"/>
					
						<line style="fill:none;stroke:#FD8E26;stroke-width:1.6134;stroke-miterlimit:10;" x1="398.104" y1="466.719" x2="398.104" y2="452.596"/>
					
						<line style="fill:none;stroke:#FD8E26;stroke-width:1.6134;stroke-miterlimit:10;" x1="412.658" y1="466.719" x2="412.658" y2="452.596"/>
					
						<line style="fill:none;stroke:#FD8E26;stroke-width:1.6134;stroke-miterlimit:10;" x1="427.212" y1="466.719" x2="427.212" y2="452.596"/>
					
						<line style="fill:none;stroke:#FD8E26;stroke-width:1.6134;stroke-miterlimit:10;" x1="485.428" y1="466.719" x2="485.428" y2="452.596"/>
					
						<line style="fill:none;stroke:#FD8E26;stroke-width:1.6134;stroke-miterlimit:10;" x1="470.874" y1="466.719" x2="470.874" y2="452.596"/>
					
						<line style="fill:none;stroke:#FD8E26;stroke-width:1.6134;stroke-miterlimit:10;" x1="456.32" y1="466.719" x2="456.32" y2="452.596"/>
				</g>
			</g>
			<g>
				<g>
					<path style="fill:#FDCC59;" d="M492.393,452.596H391.138c-1.626,0-2.943-1.318-2.943-2.943v-8.236
						c0-1.626,1.318-2.944,2.943-2.944h101.255c1.626,0,2.943,1.318,2.943,2.944v8.236
						C495.337,451.278,494.019,452.596,492.393,452.596z"/>
					<g>
						
							<line style="fill:none;stroke:#FD8E26;stroke-width:1.6134;stroke-miterlimit:10;" x1="441.766" y1="452.596" x2="441.766" y2="438.473"/>
						
							<line style="fill:none;stroke:#FD8E26;stroke-width:1.6134;stroke-miterlimit:10;" x1="398.104" y1="452.596" x2="398.104" y2="438.473"/>
						
							<line style="fill:none;stroke:#FD8E26;stroke-width:1.6134;stroke-miterlimit:10;" x1="412.658" y1="452.596" x2="412.658" y2="438.473"/>
						
							<line style="fill:none;stroke:#FD8E26;stroke-width:1.6134;stroke-miterlimit:10;" x1="427.212" y1="452.596" x2="427.212" y2="438.473"/>
						
							<line style="fill:none;stroke:#FD8E26;stroke-width:1.6134;stroke-miterlimit:10;" x1="485.428" y1="452.596" x2="485.428" y2="438.473"/>
						
							<line style="fill:none;stroke:#FD8E26;stroke-width:1.6134;stroke-miterlimit:10;" x1="470.874" y1="452.596" x2="470.874" y2="438.473"/>
						
							<line style="fill:none;stroke:#FD8E26;stroke-width:1.6134;stroke-miterlimit:10;" x1="456.32" y1="452.596" x2="456.32" y2="438.473"/>
					</g>
				</g>
				
					<line style="fill:none;stroke:#00184D;stroke-width:0.8067;stroke-linecap:round;stroke-linejoin:round;stroke-miterlimit:10;" x1="491.643" y1="452.596" x2="391.889" y2="452.596"/>
			</g>
			<g>
				<g>
					<path style="fill:#FDCC59;" d="M506.947,438.473H405.693c-1.626,0-2.943-1.318-2.943-2.943v-8.236
						c0-1.626,1.318-2.943,2.943-2.943h101.255c1.626,0,2.943,1.318,2.943,2.943v8.236
						C509.891,437.155,508.573,438.473,506.947,438.473z"/>
					<g>
						
							<line style="fill:none;stroke:#FD8E26;stroke-width:1.6134;stroke-miterlimit:10;" x1="456.32" y1="438.473" x2="456.32" y2="424.349"/>
						
							<line style="fill:none;stroke:#FD8E26;stroke-width:1.6134;stroke-miterlimit:10;" x1="412.658" y1="438.473" x2="412.658" y2="424.349"/>
						
							<line style="fill:none;stroke:#FD8E26;stroke-width:1.6134;stroke-miterlimit:10;" x1="427.212" y1="438.473" x2="427.212" y2="424.349"/>
						
							<line style="fill:none;stroke:#FD8E26;stroke-width:1.6134;stroke-miterlimit:10;" x1="441.766" y1="438.473" x2="441.766" y2="424.349"/>
						
							<line style="fill:none;stroke:#FD8E26;stroke-width:1.6134;stroke-miterlimit:10;" x1="499.982" y1="438.473" x2="499.982" y2="424.349"/>
						
							<line style="fill:none;stroke:#FD8E26;stroke-width:1.6134;stroke-miterlimit:10;" x1="485.428" y1="438.473" x2="485.428" y2="424.349"/>
						
							<line style="fill:none;stroke:#FD8E26;stroke-width:1.6134;stroke-miterlimit:10;" x1="470.874" y1="438.473" x2="470.874" y2="424.349"/>
					</g>
				</g>
				
					<line style="fill:none;stroke:#00184D;stroke-width:0.8067;stroke-linecap:round;stroke-linejoin:round;stroke-miterlimit:10;" x1="506.197" y1="438.473" x2="406.443" y2="438.473"/>
			</g>
			<g>
				<g>
					<path style="fill:#FDCC59;" d="M492.393,424.349H391.138c-1.626,0-2.943-1.318-2.943-2.943v-8.237
						c0-1.626,1.318-2.943,2.943-2.943h101.255c1.626,0,2.943,1.318,2.943,2.943v8.237
						C495.337,423.032,494.019,424.349,492.393,424.349z"/>
					<g>
						
							<line style="fill:none;stroke:#FD8E26;stroke-width:1.6134;stroke-miterlimit:10;" x1="441.766" y1="424.349" x2="441.766" y2="410.226"/>
						
							<line style="fill:none;stroke:#FD8E26;stroke-width:1.6134;stroke-miterlimit:10;" x1="398.104" y1="424.349" x2="398.104" y2="410.226"/>
						
							<line style="fill:none;stroke:#FD8E26;stroke-width:1.6134;stroke-miterlimit:10;" x1="412.658" y1="424.349" x2="412.658" y2="410.226"/>
						
							<line style="fill:none;stroke:#FD8E26;stroke-width:1.6134;stroke-miterlimit:10;" x1="427.212" y1="424.349" x2="427.212" y2="410.226"/>
						
							<line style="fill:none;stroke:#FD8E26;stroke-width:1.6134;stroke-miterlimit:10;" x1="485.428" y1="424.349" x2="485.428" y2="410.226"/>
						
							<line style="fill:none;stroke:#FD8E26;stroke-width:1.6134;stroke-miterlimit:10;" x1="470.874" y1="424.349" x2="470.874" y2="410.226"/>
						
							<line style="fill:none;stroke:#FD8E26;stroke-width:1.6134;stroke-miterlimit:10;" x1="456.32" y1="424.349" x2="456.32" y2="410.226"/>
					</g>
				</g>
				
					<line style="fill:none;stroke:#00184D;stroke-width:0.8067;stroke-linecap:round;stroke-linejoin:round;stroke-miterlimit:10;" x1="491.643" y1="424.349" x2="391.889" y2="424.349"/>
			</g>
			<g>
				<g>
					<path style="fill:#FDCC59;" d="M506.947,410.226H405.693c-1.626,0-2.943-1.318-2.943-2.943v-8.236
						c0-1.626,1.318-2.943,2.943-2.943h101.255c1.626,0,2.943,1.318,2.943,2.943v8.236
						C509.891,408.908,508.573,410.226,506.947,410.226z"/>
					<g>
						
							<line style="fill:none;stroke:#FD8E26;stroke-width:1.6134;stroke-miterlimit:10;" x1="456.32" y1="410.226" x2="456.32" y2="396.103"/>
						
							<line style="fill:none;stroke:#FD8E26;stroke-width:1.6134;stroke-miterlimit:10;" x1="412.658" y1="410.226" x2="412.658" y2="396.103"/>
						
							<line style="fill:none;stroke:#FD8E26;stroke-width:1.6134;stroke-miterlimit:10;" x1="427.212" y1="410.226" x2="427.212" y2="396.103"/>
						
							<line style="fill:none;stroke:#FD8E26;stroke-width:1.6134;stroke-miterlimit:10;" x1="441.766" y1="410.226" x2="441.766" y2="396.103"/>
						
							<line style="fill:none;stroke:#FD8E26;stroke-width:1.6134;stroke-miterlimit:10;" x1="499.982" y1="410.226" x2="499.982" y2="396.103"/>
						
							<line style="fill:none;stroke:#FD8E26;stroke-width:1.6134;stroke-miterlimit:10;" x1="485.428" y1="410.226" x2="485.428" y2="396.103"/>
						
							<line style="fill:none;stroke:#FD8E26;stroke-width:1.6134;stroke-miterlimit:10;" x1="470.874" y1="410.226" x2="470.874" y2="396.103"/>
					</g>
				</g>
				
					<line style="fill:none;stroke:#00184D;stroke-width:0.8067;stroke-linecap:round;stroke-linejoin:round;stroke-miterlimit:10;" x1="506.197" y1="410.226" x2="406.443" y2="410.226"/>
			</g>
			<g>
				<g>
					<path style="fill:#FDCC59;" d="M492.393,396.103H391.138c-1.626,0-2.943-1.318-2.943-2.944v-8.236
						c0-1.626,1.318-2.943,2.943-2.943h101.255c1.626,0,2.943,1.318,2.943,2.943v8.236
						C495.337,394.785,494.019,396.103,492.393,396.103z"/>
					<g>
						
							<line style="fill:none;stroke:#FD8E26;stroke-width:1.6134;stroke-miterlimit:10;" x1="441.766" y1="396.103" x2="441.766" y2="381.98"/>
						
							<line style="fill:none;stroke:#FD8E26;stroke-width:1.6134;stroke-miterlimit:10;" x1="398.104" y1="396.103" x2="398.104" y2="381.98"/>
						
							<line style="fill:none;stroke:#FD8E26;stroke-width:1.6134;stroke-miterlimit:10;" x1="412.658" y1="396.103" x2="412.658" y2="381.98"/>
						
							<line style="fill:none;stroke:#FD8E26;stroke-width:1.6134;stroke-miterlimit:10;" x1="427.212" y1="396.103" x2="427.212" y2="381.98"/>
						
							<line style="fill:none;stroke:#FD8E26;stroke-width:1.6134;stroke-miterlimit:10;" x1="485.428" y1="396.103" x2="485.428" y2="381.98"/>
						
							<line style="fill:none;stroke:#FD8E26;stroke-width:1.6134;stroke-miterlimit:10;" x1="470.874" y1="396.103" x2="470.874" y2="381.98"/>
						
							<line style="fill:none;stroke:#FD8E26;stroke-width:1.6134;stroke-miterlimit:10;" x1="456.32" y1="396.103" x2="456.32" y2="381.98"/>
					</g>
				</g>
				
					<line style="fill:none;stroke:#00184D;stroke-width:0.8067;stroke-linecap:round;stroke-linejoin:round;stroke-miterlimit:10;" x1="491.643" y1="396.103" x2="391.889" y2="396.103"/>
			</g>
		</g>
		<g>
			<circle style="fill:#FDCC59;" cx="442.593" cy="328.409" r="53.571"/>
			
				<path style="fill:none;stroke:#FD8E26;stroke-width:1.4863;stroke-linecap:round;stroke-linejoin:round;stroke-miterlimit:10;" d="
				M442.594,372.07c-24.075,0-43.663-19.586-43.663-43.662c0-24.075,19.587-43.662,43.663-43.662
				c24.075,0,43.661,19.586,43.661,43.662C486.255,352.484,466.669,372.07,442.594,372.07z"/>
			<g>
				<path style="fill:#FD8E26;" d="M457.448,346.783c-2.572,2.507-6.28,4.062-11.126,4.663v7.202h-6.431v-7.01
					c-3.173-0.172-6.195-0.728-9.066-1.672c-2.874-0.942-5.19-2.1-6.946-3.473l3.537-7.845c1.628,1.201,3.537,2.208,5.723,3.022
					c2.188,0.815,4.439,1.33,6.753,1.544v-10.739c-3.045-0.728-5.617-1.544-7.717-2.444c-2.1-0.901-3.859-2.218-5.273-3.955
					c-1.414-1.736-2.123-4.041-2.123-6.913c0-3.558,1.296-6.613,3.891-9.164c2.593-2.55,6.336-4.105,11.222-4.662v-7.138h6.431v7.01
					c5.273,0.428,9.624,1.736,13.055,3.923l-3.215,7.911c-3.216-1.844-6.496-2.959-9.84-3.345v10.933
					c3.002,0.687,5.542,1.47,7.622,2.348c2.077,0.879,3.826,2.187,5.24,3.923c1.414,1.737,2.123,4.019,2.123,6.849
					C461.307,341.263,460.021,344.275,457.448,346.783z M436.354,321.284c0.814,0.686,1.995,1.265,3.537,1.736v-9.132
					c-1.63,0.386-2.829,0.996-3.6,1.833c-0.774,0.836-1.158,1.811-1.158,2.927C435.133,319.719,435.54,320.598,436.354,321.284z
					 M449.796,341.284c0.771-0.771,1.156-1.693,1.156-2.766c0-1.07-0.397-1.949-1.188-2.636c-0.794-0.685-1.942-1.286-3.441-1.8
					v8.874C447.867,342.613,449.023,342.055,449.796,341.284z"/>
			</g>
			
				<path style="fill:none;stroke:#00184D;stroke-width:0.9909;stroke-linecap:round;stroke-linejoin:round;stroke-miterlimit:10;" d="
				M496.164,328.409c0,29.586-23.984,53.571-53.571,53.571c-29.586,0-53.571-23.984-53.571-53.571"/>
			
				<path style="fill:none;stroke:#FFFFFF;stroke-width:0.9909;stroke-linecap:round;stroke-linejoin:round;stroke-miterlimit:10;" d="
				M389.022,328.409c0-29.586,23.984-53.571,53.571-53.571c29.586,0,53.571,23.984,53.571,53.571"/>
		</g>
	</g>
	<g>
		<g>
			<path style="fill:#00184D;" d="M116.175,78.88v326.42h-28.83c-6.78,0-12.28-5.5-12.28-12.29V91.17c0-6.79,5.5-12.29,12.28-12.29
				H116.175z"/>
			<path style="fill:#70B9E0;" d="M260.795,405.301H99.498c-6.787,0-12.289-5.502-12.289-12.289V91.172
				c0-6.787,5.502-12.289,12.289-12.289h161.297c6.787,0,12.289,5.502,12.289,12.289v301.84
				C273.084,399.799,267.582,405.301,260.795,405.301z"/>
			
				<path style="fill:none;stroke:#00184D;stroke-width:0.7712;stroke-linecap:round;stroke-linejoin:round;stroke-miterlimit:10;" d="
				M185.383,95.898H159.54c-2.583,0-4.677-2.094-4.677-4.676l0,0c0-2.583,2.094-4.677,4.677-4.677h25.843
				c2.583,0,4.676,2.094,4.676,4.677l0,0C190.06,93.804,187.966,95.898,185.383,95.898z"/>
			<g>
				<path style="fill:#00184D;" d="M206.124,91.261c0,2.988-2.422,5.411-5.411,5.411c-2.988,0-5.411-2.422-5.411-5.411
					c0-2.988,2.422-5.41,5.411-5.41C203.701,85.851,206.124,88.273,206.124,91.261z"/>
				<path style="fill:#FFFFFF;" d="M203.025,91.261c0,1.277-1.035,2.311-2.311,2.311c-1.276,0-2.311-1.035-2.311-2.311
					c0-1.276,1.035-2.311,2.311-2.311C201.99,88.95,203.025,89.985,203.025,91.261z"/>
			</g>
			<path style="fill:none;stroke:#FFFFFF;stroke-width:0.75;stroke-linecap:round;stroke-linejoin:round;stroke-miterlimit:10;" d="
				M116.175,78.882h144.62c6.787,0,12.289,5.502,12.289,12.289v156.453"/>
		</g>
		<g>
			<path style="fill:#FFFFFF;" d="M255.902,396.047h-151.51c-4.378,0-7.928-3.549-7.928-7.928V110.461
				c0-4.379,3.55-7.928,7.928-7.928h151.51c4.378,0,7.928,3.549,7.928,7.928v277.658C263.83,392.497,260.28,396.047,255.902,396.047
				z"/>
			<g>
				
					<line style="fill:none;stroke:#00184D;stroke-width:1.5;stroke-miterlimit:10;" x1="195.999" y1="129.015" x2="224.945" y2="129.015"/>
				
					<line style="fill:none;stroke:#00184D;stroke-width:0.75;stroke-linecap:round;stroke-linejoin:round;stroke-miterlimit:10;" x1="195.999" y1="171.808" x2="242.303" y2="171.808"/>
				
					<line style="fill:none;stroke:#00184D;stroke-width:0.75;stroke-linecap:round;stroke-linejoin:round;stroke-miterlimit:10;" x1="195.999" y1="158.123" x2="227.744" y2="158.123"/>
				
					<line style="fill:none;stroke:#00184D;stroke-width:0.75;stroke-linecap:round;stroke-linejoin:round;stroke-miterlimit:10;" x1="195.999" y1="144.437" x2="242.303" y2="144.437"/>
			</g>
			<g>
				
					<line style="fill:none;stroke:#00184D;stroke-width:1.5;stroke-miterlimit:10;" x1="195.999" y1="218.878" x2="224.945" y2="218.878"/>
				
					<line style="fill:none;stroke:#00184D;stroke-width:0.75;stroke-linecap:round;stroke-linejoin:round;stroke-miterlimit:10;" x1="195.999" y1="261.671" x2="227.744" y2="261.671"/>
				
					<line style="fill:none;stroke:#00184D;stroke-width:0.75;stroke-linecap:round;stroke-linejoin:round;stroke-miterlimit:10;" x1="195.999" y1="247.986" x2="242.303" y2="247.986"/>
				
					<line style="fill:none;stroke:#00184D;stroke-width:0.75;stroke-linecap:round;stroke-linejoin:round;stroke-miterlimit:10;" x1="195.999" y1="234.301" x2="227.744" y2="234.301"/>
			</g>
			<g>
				
					<line style="fill:none;stroke:#00184D;stroke-width:1.5;stroke-miterlimit:10;" x1="195.999" y1="308.741" x2="224.945" y2="308.741"/>
				
					<line style="fill:none;stroke:#00184D;stroke-width:0.75;stroke-linecap:round;stroke-linejoin:round;stroke-miterlimit:10;" x1="195.999" y1="351.534" x2="242.303" y2="351.534"/>
				
					<line style="fill:none;stroke:#00184D;stroke-width:0.75;stroke-linecap:round;stroke-linejoin:round;stroke-miterlimit:10;" x1="195.999" y1="337.849" x2="242.303" y2="337.849"/>
				
					<line style="fill:none;stroke:#00184D;stroke-width:0.75;stroke-linecap:round;stroke-linejoin:round;stroke-miterlimit:10;" x1="195.999" y1="324.164" x2="242.303" y2="324.164"/>
			</g>
			<g>
				<path style="fill:#FF625C;" d="M168.15,359.256h-41.69c-4.569,0-8.274-3.704-8.274-8.273v-41.69
					c0-4.569,3.704-8.274,8.274-8.274h41.69c4.569,0,8.273,3.704,8.273,8.274v41.69C176.424,355.552,172.72,359.256,168.15,359.256z
					"/>
				
					<line style="fill:none;stroke:#00184D;stroke-width:0.75;stroke-linecap:round;stroke-linejoin:round;stroke-miterlimit:10;" x1="122.95" y1="305.783" x2="171.66" y2="354.493"/>
				
					<line style="fill:none;stroke:#00184D;stroke-width:0.75;stroke-linecap:round;stroke-linejoin:round;stroke-miterlimit:10;" x1="171.66" y1="305.783" x2="122.95" y2="354.493"/>
			</g>
			<g>
				<path style="fill:#FDCC59;" d="M168.15,269.393h-41.69c-4.569,0-8.274-3.704-8.274-8.274v-41.69
					c0-4.569,3.704-8.273,8.274-8.273h41.69c4.569,0,8.273,3.704,8.273,8.273v41.69C176.424,265.689,172.72,269.393,168.15,269.393z
					"/>
				
					<line style="fill:none;stroke:#00184D;stroke-width:0.75;stroke-linecap:round;stroke-linejoin:round;stroke-miterlimit:10;" x1="122.95" y1="215.92" x2="171.66" y2="264.629"/>
				
					<line style="fill:none;stroke:#00184D;stroke-width:0.75;stroke-linecap:round;stroke-linejoin:round;stroke-miterlimit:10;" x1="171.66" y1="215.92" x2="122.95" y2="264.629"/>
			</g>
			<g>
				<path style="fill:#00B39D;" d="M168.15,179.53h-41.69c-4.569,0-8.274-3.704-8.274-8.273v-41.69c0-4.569,3.704-8.274,8.274-8.274
					h41.69c4.569,0,8.273,3.704,8.273,8.274v41.69C176.424,175.826,172.72,179.53,168.15,179.53z"/>
				
					<line style="fill:none;stroke:#00184D;stroke-width:0.75;stroke-linecap:round;stroke-linejoin:round;stroke-miterlimit:10;" x1="122.95" y1="126.057" x2="171.66" y2="174.766"/>
				
					<line style="fill:none;stroke:#00184D;stroke-width:0.75;stroke-linecap:round;stroke-linejoin:round;stroke-miterlimit:10;" x1="171.66" y1="126.057" x2="122.95" y2="174.766"/>
			</g>
		</g>
	</g>
	<g>
		<g>
			<g>
				<g>
					<path style="fill:#FFFFFF;" d="M352.828,466.711l-45.212,0.008c-2,0-3.621-1.621-3.621-3.62l-0.049-25.164h32.322l8.205,11.546
						l10.964,8.425c1.692,1.101,2.513,3.143,2.053,5.106C356.984,465.179,355.052,466.711,352.828,466.711"/>
					<g>
						
							<path style="fill:none;stroke:#00184D;stroke-width:0.75;stroke-linecap:round;stroke-linejoin:round;stroke-miterlimit:10;" d="
							M323.2,448.412c0,0,8.388-2.642,18.445-0.506"/>
						
							<path style="fill:none;stroke:#00184D;stroke-width:0.75;stroke-linecap:round;stroke-linejoin:round;stroke-miterlimit:10;" d="
							M357.467,463.107c-0.423,0.124-0.877,0.189-1.335,0.183l-51.958-0.02"/>
						
							<path style="fill:none;stroke:#00184D;stroke-width:0.75;stroke-linecap:round;stroke-linejoin:round;stroke-miterlimit:10;" d="
							M318.872,443.77c0,0,8.388-2.642,18.445-0.506"/>
					</g>
				</g>
				<g>
					<path style="fill:#FFFFFF;" d="M304.292,466.711l-45.212,0.008c-2,0-3.621-1.621-3.621-3.62l-0.049-25.164h32.322l8.205,11.546
						l10.964,8.425c1.692,1.101,2.513,3.143,2.053,5.106C308.448,465.179,306.516,466.711,304.292,466.711"/>
					<g>
						
							<path style="fill:none;stroke:#00184D;stroke-width:0.75;stroke-linecap:round;stroke-linejoin:round;stroke-miterlimit:10;" d="
							M295.937,449.481l10.964,8.425c1.692,1.101,2.513,3.143,2.053,5.106c-0.506,2.167-2.438,3.699-4.662,3.699"/>
						
							<path style="fill:none;stroke:#00184D;stroke-width:0.75;stroke-linecap:round;stroke-linejoin:round;stroke-miterlimit:10;" d="
							M274.663,448.412c0,0,8.388-2.642,18.445-0.506"/>
						
							<path style="fill:none;stroke:#00184D;stroke-width:0.75;stroke-linecap:round;stroke-linejoin:round;stroke-miterlimit:10;" d="
							M308.931,463.107c-0.423,0.124-0.877,0.189-1.335,0.183l-51.958-0.02"/>
						
							<path style="fill:none;stroke:#00184D;stroke-width:0.75;stroke-linecap:round;stroke-linejoin:round;stroke-miterlimit:10;" d="
							M270.336,443.77c0,0,8.388-2.642,18.445-0.506"/>
					</g>
				</g>
			</g>
			<g>
				<g>
					<polygon style="fill:#00184D;" points="302.568,439.602 292.118,236.056 330.575,236.056 341.025,437.838 					"/>
				</g>
				<g>
					<g>
						<polygon style="fill:#00184D;" points="292.496,439.408 254.022,438.032 262.437,236.056 300.911,236.056 						"/>
					</g>
					<g>
						
							<line style="fill:none;stroke:#FFFFFF;stroke-width:0.75;stroke-linecap:round;stroke-linejoin:round;stroke-miterlimit:10;" x1="260.577" y1="438.032" x2="268.992" y2="236.056"/>
						
							<path style="fill:none;stroke:#FFFFFF;stroke-width:0.75;stroke-linecap:round;stroke-linejoin:round;stroke-miterlimit:10;" d="
							M268.029,259.194c0,0,12.09-4.858,12.09-23.138"/>
					</g>
					<g>
						
							<polyline style="fill:none;stroke:#FFFFFF;stroke-width:0.75;stroke-linecap:round;stroke-linejoin:round;stroke-miterlimit:10;" points="
							312.544,267.74 299.565,268.566 296.445,344.036 						"/>
					</g>
				</g>
			</g>
		</g>
		<g>
			<path style="fill:#FF625C;" d="M329.851,212.953c-0.446-9.799,0.219-39.238,0.219-39.238c0-10.082,0.091-18.216-4.662-21.236
				c-7.947-5.049-19.596-6.931-29.027-6.931s-21.081,1.882-29.028,6.931c-4.753,3.019-4.662,11.154-4.662,21.236
				c0,0,0.665,29.439,0.219,39.238c-0.275,6.038-2.332,24.062-2.332,24.062s38.818,4.809,71.605,0
				C332.183,237.016,330.126,218.991,329.851,212.953z"/>
			<path style="fill:#FFADA8;" d="M309.375,146.706c-2.289,3.3-5.663,5.008-10.523,5.008c-5.02,0-10.957-2.348-13.987-5.258
				c3.94-0.63,7.88-0.91,11.51-0.91C300.456,145.546,304.945,145.896,309.375,146.706z"/>
		</g>
		<g>
			<g>
				<defs>
					<polygon id="SVGID_1_" points="306.902,147.431 306.902,134.232 287.118,134.232 286.471,147.115 					"/>
				</defs>
				<use xlink:href="#SVGID_1_"  style="overflow:visible;fill:#FFADA8;"/>
				<clipPath id="SVGID_00000088825718941654792190000015000139577864673195_">
					<use xlink:href="#SVGID_1_"  style="overflow:visible;"/>
				</clipPath>
				<path style="clip-path:url(#SVGID_00000088825718941654792190000015000139577864673195_);fill:#00184D;" d="M288.426,133.821
					c0.938,3.354,4.665,11.328,18.715,9.101l-0.004-9.101H288.426z"/>
			</g>
			<g>
				<g>
					<path style="fill:#FFADA8;" d="M324.496,119.692c-2.858,3.666-7.351,4.187-10.037,1.163c-2.686-3.024-2.547-8.448,0.311-12.114
						c2.857-3.666,7.351-4.187,10.037-1.162C327.493,110.602,327.354,116.026,324.496,119.692z"/>
					
						<path style="fill:none;stroke:#00184D;stroke-width:0.75;stroke-linecap:round;stroke-linejoin:round;stroke-miterlimit:10;" d="
						M323.151,110.458c0,0-5.967-0.703-6.75,6.75"/>
				</g>
				<g>
					<path style="fill:#FFADA8;" d="M298.096,82.047c-11.705,0-21.282,9.577-21.282,21.282v15.44
						c0,11.705,13.091,19.944,24.157,19.944c8.657,0,18.407-8.239,18.407-19.944v-15.44
						C319.378,91.624,309.801,82.047,298.096,82.047z"/>
					
						<path style="fill:none;stroke:#00184D;stroke-width:0.75;stroke-linecap:round;stroke-linejoin:round;stroke-miterlimit:10;" d="
						M307.745,137.13c6.288-2.929,11.632-9.695,11.632-18.361v-9.783"/>
				</g>
				
					<path style="fill:none;stroke:#00184D;stroke-width:0.75;stroke-linecap:round;stroke-linejoin:round;stroke-miterlimit:10;" d="
					M301.785,109.771c0,0-0.798,4.621,1.995,6.768l-2.472,2.474"/>
				<g>
					<path style="fill:#00184D;" d="M306.902,122.344c-0.589,2.89-3.138,5.058-6.195,5.058c-3.058,0-5.607-2.168-6.195-5.058
						H306.902z"/>
					<path style="fill:#FFFFFF;" d="M295.649,122.344c1.151,1.537,2.988,2.529,5.057,2.529c2.067,0,3.904-0.992,5.055-2.529H295.649
						z"/>
				</g>
				<g>
					
						<path style="fill:none;stroke:#00184D;stroke-width:1.5;stroke-linecap:round;stroke-linejoin:round;stroke-miterlimit:10;" d="
						M311.737,111.931c0-1.791-1.452-3.243-3.243-3.243c-1.791,0-3.243,1.452-3.243,3.243"/>
					
						<path style="fill:none;stroke:#00184D;stroke-width:1.5;stroke-linecap:round;stroke-linejoin:round;stroke-miterlimit:10;" d="
						M295.585,111.931c0-1.791-1.452-3.243-3.243-3.243s-3.243,1.452-3.243,3.243"/>
				</g>
				<path style="fill:#00184D;" d="M319.377,106.674c1.06-8.052,1.039-24.627-19.546-25.556
					c-16.722-0.754-24.668,7.237-24.668,18.957c0,5.535,1.652,12.312,1.652,12.312h3.191c2.909-3.312,2.651-8.451,2.65-11.37
					c0-2.567,1.541-7.87,5.545-8.831c0.661-0.159,1.48-0.172,2.384-0.087c0.494,2.383,2.458,7.984,10.172,9.875l-2.398-5.01
					c4.092,2.856,10.542,5.634,20.132,5.643C319.095,104.911,319.377,106.674,319.377,106.674z"/>
				<g>
					<path style="fill:#FFADA8;" d="M269.745,119.692c2.857,3.666,7.351,4.187,10.037,1.163c2.686-3.024,2.547-8.448-0.31-12.114
						c-2.858-3.666-7.351-4.187-10.037-1.162C266.748,110.602,266.887,116.026,269.745,119.692z"/>
					
						<path style="fill:none;stroke:#00184D;stroke-width:0.75;stroke-linecap:round;stroke-linejoin:round;stroke-miterlimit:10;" d="
						M271.09,110.458c0,0,5.967-0.703,6.75,6.75"/>
				</g>
			</g>
		</g>
		<g>
			<g>
				<rect x="308.778" y="153.293" style="fill:#FDCC59;" width="55.78" height="72.9"/>
				<rect x="308.778" y="153.293" style="fill:#FDCC59;" width="55.78" height="72.9"/>
				
					<line style="fill:none;stroke:#FD8E26;stroke-width:0.75;stroke-linecap:round;stroke-linejoin:round;stroke-miterlimit:10;" x1="308.778" y1="153.293" x2="364.558" y2="226.193"/>
				
					<line style="fill:none;stroke:#FD8E26;stroke-width:0.75;stroke-linecap:round;stroke-linejoin:round;stroke-miterlimit:10;" x1="364.558" y1="153.293" x2="308.778" y2="226.193"/>
				<g>
					<polygon style="fill:#FFFFFF;" points="329.668,153.294 329.668,171.964 331.418,169.844 333.168,171.964 334.918,169.844 
						336.668,171.964 338.418,169.844 340.168,171.964 341.918,169.844 343.668,171.964 343.668,153.294 					"/>
					
						<polyline style="fill:none;stroke:#00184D;stroke-width:0.5;stroke-linecap:round;stroke-linejoin:round;stroke-miterlimit:10;" points="
						329.668,171.964 331.418,169.844 333.168,171.964 334.918,169.844 336.668,171.964 338.418,169.844 340.168,171.964 
						341.918,169.844 343.668,171.964 343.668,153.294 					"/>
				</g>
			</g>
			<g>
				
					<rect x="364.558" y="153.293" transform="matrix(-1 -1.224647e-16 1.224647e-16 -1 784.8962 379.4865)" style="fill:#FDCC59;" width="55.78" height="72.9"/>
				
					<line style="fill:none;stroke:#FD8E26;stroke-width:0.75;stroke-linecap:round;stroke-linejoin:round;stroke-miterlimit:10;" x1="364.558" y1="153.293" x2="420.338" y2="226.193"/>
				
					<line style="fill:none;stroke:#FD8E26;stroke-width:0.75;stroke-linecap:round;stroke-linejoin:round;stroke-miterlimit:10;" x1="420.338" y1="153.293" x2="364.558" y2="226.193"/>
				<g>
					<polygon style="fill:#FFFFFF;" points="399.448,153.294 399.448,171.964 397.698,169.844 395.948,171.964 394.198,169.844 
						392.448,171.964 390.698,169.844 388.948,171.964 387.198,169.844 385.448,171.964 385.448,153.294 					"/>
					
						<polyline style="fill:none;stroke:#00184D;stroke-width:0.5;stroke-linecap:round;stroke-linejoin:round;stroke-miterlimit:10;" points="
						399.448,171.964 397.698,169.844 395.948,171.964 394.198,169.844 392.448,171.964 390.698,169.844 388.948,171.964 
						387.198,169.844 385.448,171.964 385.448,153.294 					"/>
				</g>
				
					<line style="fill:none;stroke:#00184D;stroke-width:0.75;stroke-linecap:round;stroke-linejoin:round;stroke-miterlimit:10;" x1="364.558" y1="153.293" x2="364.558" y2="226.193"/>
			</g>
		</g>
		<g>
			<g>
				<path style="fill:#FFADA8;" d="M314.986,202.286c-6.88-1.86-13.8-2.99-20.47-4.01c-1.78-0.28-3.56-0.54-5.29-0.8l-0.85-11.27
					c-0.29-3.43-0.59-6.93-0.99-10.41l-31.69,2.46c0.07,3.55,1.889,17.86,2.529,21.59c1.852,10.791,4.221,23.396,16.998,25.107
					c9.268,1.241,20.663-1.097,30.413-3.787c1.74-0.48,3.47-0.98,5.2-1.56l2.58-0.88c0.87-0.33,1.71-0.63,2.6-1
					c2.23-0.94,4.07-2.89,4.75-5.41C321.945,207.956,319.365,203.466,314.986,202.286z"/>
				
					<path style="fill:none;stroke:#00184D;stroke-width:0.75;stroke-linecap:round;stroke-linejoin:round;stroke-miterlimit:10;" d="
					M289.565,197.385c0,0-10.085-1.772-18.577,2.613"/>
			</g>
			<g>
				<path style="fill:#FFADA8;" d="M347.479,210.891c-0.377-1.302-1.73-2.27-2.919-1.923c0,0,1.05-0.338,1.394-0.47
					c1.161-0.445,1.795-1.765,1.376-3.054c-0.209-0.643-0.639-1.146-1.162-1.438c0.681-0.538,1.031-1.483,0.818-2.455
					c-0.181-0.827-0.726-1.474-1.406-1.781c0.43-0.489,0.665-1.174,0.58-1.914c-0.154-1.344-1.286-2.346-2.527-2.236l-5.789,0.511
					c-0.071,0.006-0.142,0.016-0.211,0.03l-3.945,0.763c1.971-0.611,2.583-1.934,2.571-3.129c-0.015-1.495-1.552-2.932-2.815-2.506
					c-2.283,0.769-2.736,1.285-9.989,2.222c-3.173,0.41-5.766,1.723-7.518,3.477c-2.254,2.255-3.212,5.003-3.212,5.003l4.781,14.93
					c7.329,0.795,15.494-0.078,15.494-0.078s6.286-0.976,6.754-1.109c1.567-0.445,6.249-1.847,6.249-1.847
					C347.196,213.534,347.857,212.193,347.479,210.891z"/>
				<g>
					
						<path style="fill:none;stroke:#00184D;stroke-width:0.75;stroke-linecap:round;stroke-linejoin:round;stroke-miterlimit:10;" d="
						M330.327,202.421c0.012-0.003,0.024-0.005,0.037-0.007l8.149-1.576l7.068-1.068"/>
					
						<polyline style="fill:none;stroke:#00184D;stroke-width:0.75;stroke-linecap:round;stroke-linejoin:round;stroke-miterlimit:10;" points="
						346.169,204.006 339.531,205.639 331.345,207.223 					"/>
					
						<path style="fill:none;stroke:#00184D;stroke-width:0.75;stroke-linecap:round;stroke-linejoin:round;stroke-miterlimit:10;" d="
						M345.955,208.498l-5.744,1.937c-0.077,0.026-0.154,0.047-0.232,0.063c-0.012,0.003-0.024,0.005-0.036,0.007l-8.26,1.597"/>
					
						<path style="fill:none;stroke:#00184D;stroke-width:0.75;stroke-linecap:round;stroke-linejoin:round;stroke-miterlimit:10;" d="
						M323.838,196.528c0,0,2.511,0.478,5.942,1.258c0,0,2.809-0.649,3.908-0.862"/>
					
						<path style="fill:none;stroke:#00184D;stroke-width:0.75;stroke-linecap:round;stroke-linejoin:round;stroke-miterlimit:10;" d="
						M317.506,216.921c7.329,0.795,15.494-0.078,15.494-0.078s6.286-0.976,6.754-1.109c1.567-0.445,6.249-1.847,6.249-1.847"/>
				</g>
			</g>
			<g>
				<path style="fill:#FF625C;" d="M288.177,180.855c-14.594,0.242-22.643,1.258-32.92,3.467
					c-1.207-6.828-1.117-12.071-1.117-12.071c-0.47-9.644,4.367-18.251,13.213-19.771c9.747-1.676,18.378,4.644,19.631,16.106
					C287.617,174.383,288.177,180.855,288.177,180.855z"/>
				
					<path style="fill:none;stroke:#00184D;stroke-width:0.75;stroke-linecap:round;stroke-linejoin:round;stroke-miterlimit:10;" d="
					M286.983,168.586c0.634,5.797,1.193,12.269,1.193,12.269c-14.594,0.242-22.643,1.258-32.92,3.467"/>
			</g>
		</g>
	</g>
	<g>
		<g>
			<g>
				<rect x="122.63" y="322.015" style="fill:#FDDF98;" width="55.78" height="144.704"/>
				<rect x="122.63" y="322.015" style="fill:#FDDF98;" width="55.78" height="144.704"/>
				
					<line style="fill:none;stroke:#FD8E26;stroke-width:0.75;stroke-linecap:round;stroke-linejoin:round;stroke-miterlimit:10;" x1="122.63" y1="322.015" x2="178.41" y2="466.719"/>
				
					<line style="fill:none;stroke:#FD8E26;stroke-width:0.75;stroke-linecap:round;stroke-linejoin:round;stroke-miterlimit:10;" x1="178.41" y1="322.015" x2="122.63" y2="466.719"/>
				<g>
					<polygon style="fill:#FFFFFF;" points="143.52,322.016 143.52,340.686 145.27,338.566 147.02,340.686 148.77,338.566 
						150.52,340.686 152.27,338.566 154.02,340.686 155.77,338.566 157.52,340.686 157.52,322.016 					"/>
					
						<polyline style="fill:none;stroke:#00184D;stroke-width:0.5;stroke-linecap:round;stroke-linejoin:round;stroke-miterlimit:10;" points="
						143.52,340.686 145.27,338.566 147.02,340.686 148.77,338.566 150.52,340.686 152.27,338.566 154.02,340.686 155.77,338.566 
						157.52,340.686 157.52,322.016 					"/>
				</g>
			</g>
			<g>
				
					<rect x="178.41" y="322.015" transform="matrix(-1 -1.224647e-16 1.224647e-16 -1 412.5997 788.7347)" style="fill:#FDDF98;" width="55.78" height="144.704"/>
				
					<line style="fill:none;stroke:#FD8E26;stroke-width:0.75;stroke-linecap:round;stroke-linejoin:round;stroke-miterlimit:10;" x1="178.41" y1="322.015" x2="234.19" y2="466.719"/>
				
					<line style="fill:none;stroke:#FD8E26;stroke-width:0.75;stroke-linecap:round;stroke-linejoin:round;stroke-miterlimit:10;" x1="234.19" y1="322.015" x2="178.41" y2="466.719"/>
				<g>
					<polygon style="fill:#FFFFFF;" points="213.3,322.016 213.3,340.686 211.55,338.566 209.8,340.686 208.05,338.566 
						206.3,340.686 204.55,338.566 202.8,340.686 201.05,338.566 199.3,340.686 199.3,322.016 					"/>
					
						<polyline style="fill:none;stroke:#00184D;stroke-width:0.5;stroke-linecap:round;stroke-linejoin:round;stroke-miterlimit:10;" points="
						213.3,340.686 211.55,338.566 209.8,340.686 208.05,338.566 206.3,340.686 204.55,338.566 202.8,340.686 201.05,338.566 
						199.3,340.686 199.3,322.016 					"/>
				</g>
				
					<line style="fill:none;stroke:#00184D;stroke-width:0.75;stroke-linecap:round;stroke-linejoin:round;stroke-miterlimit:10;" x1="178.41" y1="322.015" x2="178.41" y2="466.719"/>
			</g>
		</g>
		<g>
			<g>
				<rect x="165.906" y="393.819" style="fill:#FDCC59;" width="55.78" height="72.9"/>
				<rect x="165.906" y="393.819" style="fill:#FDCC59;" width="55.78" height="72.9"/>
				
					<line style="fill:none;stroke:#FD8E26;stroke-width:0.75;stroke-linecap:round;stroke-linejoin:round;stroke-miterlimit:10;" x1="165.906" y1="393.819" x2="221.686" y2="466.719"/>
				
					<line style="fill:none;stroke:#FD8E26;stroke-width:0.75;stroke-linecap:round;stroke-linejoin:round;stroke-miterlimit:10;" x1="221.686" y1="393.819" x2="165.906" y2="466.719"/>
				<g>
					<polygon style="fill:#FFFFFF;" points="186.796,393.82 186.796,412.49 188.546,410.37 190.296,412.49 192.046,410.37 
						193.796,412.49 195.546,410.37 197.296,412.49 199.046,410.37 200.796,412.49 200.796,393.82 					"/>
					
						<polyline style="fill:none;stroke:#00184D;stroke-width:0.5;stroke-linecap:round;stroke-linejoin:round;stroke-miterlimit:10;" points="
						186.796,412.49 188.546,410.37 190.296,412.49 192.046,410.37 193.796,412.49 195.546,410.37 197.296,412.49 199.046,410.37 
						200.796,412.49 200.796,393.82 					"/>
				</g>
			</g>
			<g>
				
					<rect x="221.686" y="393.819" transform="matrix(-1 -1.224647e-16 1.224647e-16 -1 499.1529 860.5381)" style="fill:#FDCC59;" width="55.78" height="72.9"/>
				
					<line style="fill:none;stroke:#FD8E26;stroke-width:0.75;stroke-linecap:round;stroke-linejoin:round;stroke-miterlimit:10;" x1="221.686" y1="393.819" x2="277.466" y2="466.719"/>
				
					<line style="fill:none;stroke:#FD8E26;stroke-width:0.75;stroke-linecap:round;stroke-linejoin:round;stroke-miterlimit:10;" x1="277.466" y1="393.819" x2="221.686" y2="466.719"/>
				<g>
					<polygon style="fill:#FFFFFF;" points="256.576,393.82 256.576,412.49 254.826,410.37 253.076,412.49 251.326,410.37 
						249.576,412.49 247.826,410.37 246.076,412.49 244.326,410.37 242.576,412.49 242.576,393.82 					"/>
					
						<polyline style="fill:none;stroke:#00184D;stroke-width:0.5;stroke-linecap:round;stroke-linejoin:round;stroke-miterlimit:10;" points="
						256.576,412.49 254.826,410.37 253.076,412.49 251.326,410.37 249.576,412.49 247.826,410.37 246.076,412.49 244.326,410.37 
						242.576,412.49 242.576,393.82 					"/>
				</g>
				
					<line style="fill:none;stroke:#00184D;stroke-width:0.75;stroke-linecap:round;stroke-linejoin:round;stroke-miterlimit:10;" x1="221.686" y1="393.819" x2="221.686" y2="466.719"/>
			</g>
		</g>
	</g>
	<g>
		<path style="fill:#FFFFFF;" d="M390.925,107.085h54.247c1.009,0,1.826-0.818,1.826-1.826V94.731c0-1.452,1.612-2.323,2.827-1.528
			l42.398,27.754c1.102,0.721,1.102,2.335,0,3.056l-42.398,27.753c-1.215,0.795-2.827-0.076-2.827-1.528V139.71
			c0-1.009-0.818-1.827-1.826-1.827h-54.247c-1.009,0-1.826-0.818-1.826-1.826v-27.146
			C389.098,107.903,389.916,107.085,390.925,107.085z"/>
		<path style="fill:none;stroke:#00184D;stroke-width:0.75;stroke-linecap:round;stroke-linejoin:round;stroke-miterlimit:10;" d="
			M492.224,124.013l-42.398,27.753c-1.215,0.795-2.827-0.076-2.827-1.528V139.71c0-1.009-0.818-1.827-1.826-1.827h-54.247
			c-1.009,0-1.826-0.818-1.826-1.826v-27.146"/>
	</g>
	<g>
		<path style="fill:#FFFFFF;" d="M434.429,63.706h-54.248c-1.009,0-1.826-0.818-1.826-1.826V51.351c0-1.452-1.612-2.323-2.827-1.528
			L333.13,77.577c-1.102,0.721-1.102,2.335,0,3.056l42.398,27.753c1.215,0.795,2.827-0.076,2.827-1.528V96.33
			c0-1.009,0.818-1.826,1.826-1.826h54.248c1.009,0,1.826-0.818,1.826-1.826V65.532C436.256,64.523,435.438,63.706,434.429,63.706z"
			/>
		<path style="fill:none;stroke:#00184D;stroke-width:0.75;stroke-linecap:round;stroke-linejoin:round;stroke-miterlimit:10;" d="
			M333.13,80.633l42.398,27.753c1.215,0.795,2.827-0.076,2.827-1.528V96.33c0-1.009,0.818-1.826,1.826-1.826h54.248
			c1.009,0,1.826-0.818,1.826-1.826"/>
	</g>
	<g>
		<g>
			<g>
				<defs>
					<polygon id="SVGID_00000055687415376409094530000014037741930450357166_" points="537.366,129.676 518.456,134.22 
						517.81,147.102 538.241,147.102 					"/>
				</defs>
				<use xlink:href="#SVGID_00000055687415376409094530000014037741930450357166_"  style="overflow:visible;fill:#D9684C;"/>
				<clipPath id="SVGID_00000147203572257800271000000010623516927985850794_">
					<use xlink:href="#SVGID_00000055687415376409094530000014037741930450357166_"  style="overflow:visible;"/>
				</clipPath>
				<path style="clip-path:url(#SVGID_00000147203572257800271000000010623516927985850794_);fill:#00184D;" d="M515.562,134.839
					v8.85c6.53,0.125,11.39-3.29,13.04-8.85H515.562z"/>
			</g>
			<g>
				<path style="fill:#D9684C;" d="M503.286,109.243v-5.926c0-11.705,9.577-21.282,21.282-21.282
					c11.705,0,21.282,9.577,21.282,21.282c0,0,1.121,13.926-3.295,21.575c-4.644,8.043-14.626,14.319-29.298,13.809
					c-8.898-0.309-9.97-7.995-9.97-19.7l-4.337-2.702L503.286,109.243z"/>
				<path style="fill:#00184D;" d="M507.558,113.099L507.558,113.099c-0.953,0-1.726-0.773-1.726-1.726v-2.153
					c0-0.953,0.773-1.726,1.726-1.726l0,0c0.953,0,1.726,0.773,1.726,1.726v2.153C509.284,112.326,508.511,113.099,507.558,113.099z
					"/>
				<g>
					<path style="fill:#FFFFFF;" d="M511.21,119.632c0.068,2.388-1.209,4.578-3.135,5.159c-1.926,0.58-3.861-0.643-4.671-2.807
						L511.21,119.632z"/>
				</g>
				<path style="fill:#00184D;" d="M512.117,92.176c4.01,0.96,5.55,6.26,5.55,8.83c0,2.92-3.83,6.99,2.65,11.37
					c0.54,6.13,7.14,16.02,17.17,19.78c10.49-6.6,10.58-21.36,10.37-29.07c-0.32-11.15-2.36-19.29-8.43-21.05
					c-9.81-2.84-26.825-3.024-33.798-2.643c-1.718,0.094-2.169,0.537-2.521,2.22c-0.734,3.511,0.032,11.234,1.689,13.863
					C504.797,95.476,508.127,91.216,512.117,92.176z"/>
				<g>
					<path style="fill:#D9684C;" d="M528.027,119.231c-2.276,3.326-5.856,3.798-7.996,1.055c-2.14-2.743-2.029-7.663,0.247-10.989
						c2.276-3.325,5.856-3.798,7.996-1.054C530.414,110.986,530.303,115.906,528.027,119.231z"/>
					
						<path style="fill:none;stroke:#00184D;stroke-width:0.75;stroke-linecap:round;stroke-linejoin:round;stroke-miterlimit:10;" d="
						M526.956,110.855c0,0-4.753-0.638-5.377,6.123"/>
				</g>
			</g>
		</g>
		<g>
			<path style="fill:#D9684C;" d="M468.767,181.996c-2.859,0.06-5.62,1.55-7.04,4.26c-2.05,3.89-0.55,8.7,3.34,10.74
				c3.74,1.965,10.165,4.97,16.801,7.72c6.636,2.75,13.484,5.245,18.075,6.23c0,0,1.257-6.732,2.519-13.425
				c1.262-6.693,2.525-13.385,2.525-13.385C493.799,182.527,476.948,181.825,468.767,181.996z"/>
			<g>
				<path style="fill:#D9684C;" d="M451.909,188.579c-5.502-0.838-8.113-0.975-11.573-0.62c-1.1,0.114-2.198-0.661-2.558-1.914
					c-0.45-1.592,0.416-3.138,1.757-3.271c2.726-0.296,6.274-0.321,10.271,0.398c-6.721-2.149-11.837-1.607-11.925-1.589
					c-1.215,0.148-2.376-0.879-2.59-2.316c-0.206-1.448,0.603-2.727,1.816-2.885c0.349-0.041,6.548-0.725,14.522,2.055
					c-6.407-3.204-11.571-3.541-11.649-3.524c-1.232-0.083-2.257-1.292-2.298-2.733c-0.039-1.431,0.945-2.553,2.173-2.489
					c0.369,0.006,6.652,0.377,14.294,4.471c-2.469-1.728-4.79-2.986-6.721-3.834c-1.046-0.469-1.784-1.726-1.644-2.98
					c0.187-1.621,1.589-2.501,2.89-1.932c3.346,1.476,8.815,4.486,12.287,8.11c0.286,0.298,6.624,4.803,9.464,9.477l-7.127,12.883
					C457.223,196.505,451.909,188.579,451.909,188.579z"/>
				
					<path style="fill:none;stroke:#00184D;stroke-width:0.75;stroke-linecap:round;stroke-linejoin:round;stroke-miterlimit:10;" d="
					M459.704,188.193c-2.229-2.766,0.262-6.385,0.262-6.385l-1.456-1.348c0,0-3.973-0.311-4.89-1.074
					c-1.593-1.326-1.173-3.157-0.861-3.627c0.402-0.606,5.13-0.71,8.781-0.08"/>
				
					<path style="fill:none;stroke:#00184D;stroke-width:0.75;stroke-linecap:round;stroke-linejoin:round;stroke-miterlimit:10;" d="
					M452.428,186.612c0,0,0.074-3.855,1.869-6.866"/>
			</g>
		</g>
		<g>
			<g>
				<g>
					<path style="fill:#FDCC59;" d="M523.69,466.711l45.212,0.008c2,0,3.621-1.621,3.621-3.62l0.049-25.164H540.25l-8.205,11.546
						l-10.964,8.425c-1.692,1.101-2.513,3.143-2.053,5.106C519.534,465.179,521.466,466.711,523.69,466.711"/>
					
						<path style="fill:none;stroke:#00184D;stroke-width:0.75;stroke-linecap:round;stroke-linejoin:round;stroke-miterlimit:10;" d="
						M519.051,463.107c0.423,0.124,0.877,0.189,1.335,0.183l51.958-0.02"/>
				</g>
				<g>
					<path style="fill:#FDCC59;" d="M476.153,466.711l45.212,0.008c2,0,3.621-1.621,3.621-3.62l0.049-25.164h-32.322l-8.205,11.546
						l-10.964,8.425c-1.692,1.101-2.513,3.143-2.053,5.106C471.997,465.179,473.93,466.711,476.153,466.711"/>
					<g>
						
							<path style="fill:none;stroke:#00184D;stroke-width:0.75;stroke-linecap:round;stroke-linejoin:round;stroke-miterlimit:10;" d="
							M471.515,463.107c0.423,0.124,0.877,0.189,1.335,0.183l51.958-0.02"/>
						
							<path style="fill:none;stroke:#00184D;stroke-width:0.75;stroke-linecap:round;stroke-linejoin:round;stroke-miterlimit:10;" d="
							M521.366,466.719c2,0,3.621-1.621,3.621-3.62l0.049-17.976"/>
					</g>
				</g>
			</g>
			<g>
				<g>
					<g>
						<polygon style="fill:#00184D;" points="536.511,439.883 523.096,237.056 561.52,237.056 574.935,438.18 						"/>
					</g>
					
						<line style="fill:none;stroke:#FFFFFF;stroke-width:0.75;stroke-linecap:round;stroke-linejoin:round;stroke-miterlimit:10;" x1="574.07" y1="425.218" x2="535.654" y2="426.921"/>
				</g>
				<g>
					<g>
						<polygon style="fill:#00184D;" points="528.436,439.883 489.936,438.18 494.385,237.056 532.885,237.056 						"/>
					</g>
					<g>
						
							<line style="fill:none;stroke:#FFFFFF;stroke-width:0.75;stroke-linecap:round;stroke-linejoin:round;stroke-miterlimit:10;" x1="504.557" y1="237.056" x2="500.387" y2="425.646"/>
					</g>
					
						<polyline style="fill:none;stroke:#FFFFFF;stroke-width:0.75;stroke-linecap:round;stroke-linejoin:round;stroke-miterlimit:10;" points="
						549.015,267.038 532.191,268.57 530.086,364.123 					"/>
					
						<line style="fill:none;stroke:#FFFFFF;stroke-width:0.75;stroke-linecap:round;stroke-linejoin:round;stroke-miterlimit:10;" x1="528.72" y1="426.895" x2="490.223" y2="425.192"/>
				</g>
			</g>
		</g>
		<g>
			<path style="fill:#00B39D;" d="M498.949,154.885c10.13-8.597,22.642-9.336,30.653-9.336c23.934,0,33.689,12.613,33.689,28.167
				c0,0-0.374,16.559-0.373,28.973c0.066,4.573,0.173,8.685,0.415,12.004c0.342,10.483,5.342,25.483,1.342,27.483c-21,12-48,3-72-3
				c3-5,0-9,0.586-13.937c0.098-3.405-0.105-8.462-0.167-13.947c0.205-13.85,0.527-29.675,0.992-37.576
				C494.533,166.123,498.949,154.885,498.949,154.885z"/>
			<path style="fill:none;stroke:#00184D;stroke-width:0.75;stroke-linecap:round;stroke-linejoin:round;stroke-miterlimit:10;" d="
				M513.436,219.284c11.239,10.892,29.239,14.892,44.173,14.025"/>
		</g>
		<g>
			<g>
				<path style="fill:#D9684C;" d="M427.277,207.651c1.829,1.199,5.505,0.858,5.505,0.858l7.446-15.065l-10.787-9.809
					c-3.881-4.07-9.999-7.448-13.745-9.115c-1.451-0.639-3.023,0.343-3.238,2.159c-0.166,1.411,0.659,2.814,1.838,3.347
					c2.151,0.948,4.758,2.367,7.521,4.308c-8.56-4.598-15.598-5.035-16.01-5.045c-1.375-0.07-2.472,1.186-2.438,2.79
					c0.043,1.618,1.188,2.974,2.572,3.059c0.088-0.007,5.87,0.371,13.044,3.979c-8.927-3.128-15.87-2.376-16.266-2.332
					c-1.364,0.171-2.272,1.605-2.044,3.223c0.24,1.608,1.533,2.768,2.898,2.598c0.099-0.017,5.833-0.617,13.358,1.806
					c-4.48-0.813-8.451-0.792-11.505-0.468c-1.504,0.154-2.482,1.875-1.977,3.665c0.401,1.403,1.634,2.274,2.864,2.151
					c3.876-0.393,8.921-0.218,14.92,1.082C421.233,200.842,423.974,205.487,427.277,207.651z"/>
				
					<path style="fill:none;stroke:#00184D;stroke-width:0.75;stroke-linecap:round;stroke-linejoin:round;stroke-miterlimit:10;" d="
					M421.748,198.428c-0.661-0.599-0.733-2.041-0.509-2.71c0.16-0.477,1.031-1.104,1.214-1.574c0.26-0.671-0.696-1.965-0.414-2.629
					c0.24-0.565,1.758-1.199,2.068-1.738c0.346-0.6-0.189-1.927,0.224-2.495c0.301-0.414,1.624-0.609,1.914-1.029
					c0.31-0.449,0.052-1.589,0.432-1.997c0.49-0.525,1.808-0.532,2.861-0.404"/>
			</g>
			<g>
				<path style="fill:#D9684C;" d="M516.597,183.066c-2.66,4.02-5.53,7.88-8.55,11.7c-2.38,3.03-4.9,5.97-7.58,8.95
					c-1.78,1.985-3.642,4.075-5.661,5.975c-10.13,11.485-24.13,7.485-36.965,5.38c-3.849-0.61-8.184-1.432-12.521-2.515
					c-4.337-1.082-8.677-2.425-12.532-4.05l7.44-15.06c5.97-1.15,11.77-2.27,17.62-3.19c0,0,13.84-2.06,15.24-2.3
					c0.04-0.04,0.07-0.09,0.1-0.14c0.91-1.22,7.21-9.87,9.44-12.79c2.69-3.54,5.46-7.09,8.38-10.52L516.597,183.066z"/>
				
					<path style="fill:none;stroke:#00184D;stroke-width:0.75;stroke-linecap:round;stroke-linejoin:round;stroke-miterlimit:10;" d="
					M479.38,179.381c-2.591,3.515-5.584,7.623-6.188,8.439c-0.033,0.046-0.067,0.092-0.101,0.138
					c-1.4,0.241-15.248,2.299-15.248,2.299c-1.807,0.283-3.61,0.586-5.414,0.903"/>
			</g>
			<g>
				<path style="fill:#00B39D;" d="M485.827,169.684c6.025,10.062,14.833,17.822,26.037,20.441c4.653-5.141,7.364-9.63,7.364-9.63
					c5.526-7.918,6.006-17.779-0.677-23.77c-7.364-6.602-18.034-5.839-25.19,3.202C489.743,164.501,485.827,169.684,485.827,169.684
					z"/>
				
					<path style="fill:none;stroke:#00184D;stroke-width:0.75;stroke-linecap:round;stroke-linejoin:round;stroke-miterlimit:10;" d="
					M511.865,190.125c4.653-5.141,7.364-9.63,7.364-9.63c1.171-1.678,2.116-3.443,2.813-5.24"/>
			</g>
		</g>
	</g>
</g>
</svg>
